<?xml version="1.0" encoding="UTF-8"?>
<!DOCTYPE svg PUBLIC "-//W3C//DTD SVG 1.1//EN" "http://www.w3.org/Graphics/SVG/1.1/DTD/svg11.dtd">
<svg xmlns="http://www.w3.org/2000/svg" version="1.1" width="84px" height="84px" style="shape-rendering:geometricPrecision; text-rendering:geometricPrecision; image-rendering:optimizeQuality; fill-rule:evenodd; clip-rule:evenodd" xmlns:xlink="http://www.w3.org/1999/xlink">
<g><path style="opacity:0.682" fill="#ff0000" d="M 37.5,4.5 C 44.0722,3.06948 47.4056,5.73615 47.5,12.5C 47.6334,15.9719 45.9668,17.9719 42.5,18.5C 39.609,17.9944 36.9424,16.9944 34.5,15.5C 33.4798,13.5675 33.3131,11.5675 34,9.5C 35.6692,8.15366 36.8358,6.487 37.5,4.5 Z M 40.5,7.5 C 41.9176,9.18669 43.2509,11.02 44.5,13C 42.2533,14.3857 39.9199,14.219 37.5,12.5C 38.7629,10.9713 39.7629,9.30459 40.5,7.5 Z"/></g>
<g><path style="opacity:0.686" fill="#ff0000" d="M 53.5,6.5 C 56.6074,6.35123 59.6074,6.85123 62.5,8C 65.7909,10.332 66.2909,13.1653 64,16.5C 61.3542,19.2459 58.1876,20.4126 54.5,20C 50.8996,15.759 50.5663,11.259 53.5,6.5 Z M 55.5,9.5 C 62.9869,11.0398 63.3202,13.3731 56.5,16.5C 55.2031,14.0819 54.8697,11.7486 55.5,9.5 Z"/></g>
<g><path style="opacity:0.675" fill="#ff0000" d="M 24.5,7.5 C 30.4992,7.00198 32.6659,9.66865 31,15.5C 30.5547,20.9378 27.7213,22.7711 22.5,21C 15.2883,15.0524 15.955,10.5524 24.5,7.5 Z M 25.5,11.5 C 26.4972,11.4701 27.1639,11.9701 27.5,13C 26.4267,14.4162 26.4267,15.7496 27.5,17C 27,17.5 26.5,18 26,18.5C 24.6565,16.6584 23.1565,14.9917 21.5,13.5C 22.9492,12.8281 24.2825,12.1614 25.5,11.5 Z"/></g>
<g><path style="opacity:0.716" fill="#ff0000" d="M 11.5,24.5 C 31.5028,24.3334 51.5028,24.5 71.5,25C 73.4439,27.1529 73.9439,29.6529 73,32.5C 71.8904,34.0368 70.3904,34.7035 68.5,34.5C 68.2962,37.5176 67.9629,40.5176 67.5,43.5C 71.0071,42.9935 74.1737,43.6602 77,45.5C 77.6667,52.8333 77.6667,60.1667 77,67.5C 76.5,68 76,68.5 75.5,69C 71.1794,69.499 66.8461,69.6657 62.5,69.5C 62.4921,72.5448 62.1587,75.5448 61.5,78.5C 48.1667,78.5 34.8333,78.5 21.5,78.5C 21.0371,75.5176 20.7038,72.5176 20.5,69.5C 16.1539,69.6657 11.8206,69.499 7.5,69C 7,68.5 6.5,68 6,67.5C 5.33333,60.1667 5.33333,52.8333 6,45.5C 8.82627,43.6602 11.9929,42.9935 15.5,43.5C 15.2962,40.4824 14.9629,37.4824 14.5,34.5C 9.84855,33.8258 8.34855,31.1592 10,26.5C 10.7172,25.9558 11.2172,25.2891 11.5,24.5 Z M 13.5,27.5 C 32.1667,27.5 50.8333,27.5 69.5,27.5C 69.5,28.8333 69.5,30.1667 69.5,31.5C 50.8333,31.5 32.1667,31.5 13.5,31.5C 13.5,30.1667 13.5,28.8333 13.5,27.5 Z M 18.5,34.5 C 33.8333,34.5 49.1667,34.5 64.5,34.5C 64.4921,37.5448 64.1587,40.5448 63.5,43.5C 48.8333,43.5 34.1667,43.5 19.5,43.5C 18.8413,40.5448 18.5079,37.5448 18.5,34.5 Z M 51.5,64.5 C 49.6076,61.7235 47.9409,58.7235 46.5,55.5C 43.1667,52.8333 39.8333,52.8333 36.5,55.5C 34.9608,58.7456 33.2941,61.9123 31.5,65C 24.1742,65.4997 16.8409,65.6663 9.5,65.5C 9.5,59.5 9.5,53.5 9.5,47.5C 30.8333,47.5 52.1667,47.5 73.5,47.5C 73.5,53.5 73.5,59.5 73.5,65.5C 65.9809,65.825 58.6476,65.4916 51.5,64.5 Z M 14.5,51.5 C 20.5092,51.3338 26.5092,51.5005 32.5,52C 31.0737,54.7733 29.7404,57.6066 28.5,60.5C 23.8804,61.4933 19.2137,61.8266 14.5,61.5C 14.5,58.1667 14.5,54.8333 14.5,51.5 Z M 50.5,52.5 C 56.31,51.5104 62.31,51.1771 68.5,51.5C 68.5,54.8333 68.5,58.1667 68.5,61.5C 63.7863,61.8266 59.1196,61.4933 54.5,60.5C 53.3391,57.6416 52.0057,54.975 50.5,52.5 Z M 39.5,57.5 C 41.1439,57.2865 42.6439,57.6198 44,58.5C 45.5036,61.6841 47.0036,64.8507 48.5,68C 52.0458,69.1737 55.7125,69.8404 59.5,70C 58.5939,71.6995 58.2606,73.5328 58.5,75.5C 47.1667,75.5 35.8333,75.5 24.5,75.5C 24.7394,73.5328 24.4061,71.6995 23.5,70C 27.2875,69.8404 30.9542,69.1737 34.5,68C 36.0727,64.4448 37.7394,60.9448 39.5,57.5 Z"/></g>
<g><path style="opacity:0.787" fill="#ff0000" d="M 11.5,48.5 C 19.5069,48.3336 27.5069,48.5003 35.5,49C 36.0585,49.7247 36.3918,50.5581 36.5,51.5C 34.9035,55.8596 32.9035,60.0263 30.5,64C 24.1754,64.4995 17.8421,64.6662 11.5,64.5C 11.5,59.1667 11.5,53.8333 11.5,48.5 Z M 14.5,51.5 C 14.5,54.8333 14.5,58.1667 14.5,61.5C 19.2137,61.8266 23.8804,61.4933 28.5,60.5C 29.7404,57.6066 31.0737,54.7733 32.5,52C 26.5092,51.5005 20.5092,51.3338 14.5,51.5 Z"/></g>
<g><path style="opacity:0.782" fill="#ff0000" d="M 51.5,64.5 C 50.5719,60.6379 49.0719,56.9712 47,53.5C 46.2797,51.8876 46.4464,50.3876 47.5,49C 55.4931,48.5003 63.4931,48.3336 71.5,48.5C 71.5,53.8333 71.5,59.1667 71.5,64.5C 64.8333,64.5 58.1667,64.5 51.5,64.5 Z M 50.5,52.5 C 52.0057,54.975 53.3391,57.6416 54.5,60.5C 59.1196,61.4933 63.7863,61.8266 68.5,61.5C 68.5,58.1667 68.5,54.8333 68.5,51.5C 62.31,51.1771 56.31,51.5104 50.5,52.5 Z"/></g>
</svg>
