<?xml version="1.0" encoding="UTF-8"?>
<!DOCTYPE svg PUBLIC "-//W3C//DTD SVG 1.1//EN" "http://www.w3.org/Graphics/SVG/1.1/DTD/svg11.dtd">
<svg xmlns="http://www.w3.org/2000/svg" version="1.1" width="183px" height="42px" style="shape-rendering:geometricPrecision; text-rendering:geometricPrecision; image-rendering:optimizeQuality; fill-rule:evenodd; clip-rule:evenodd" xmlns:xlink="http://www.w3.org/1999/xlink">
<g><path style="opacity:0.542" fill="#ff0000" d="M 17.5,-0.5 C 19.1667,-0.5 20.8333,-0.5 22.5,-0.5C 25.9038,3.66779 25.0705,6.33446 20,7.5C 18.1878,7.50663 16.6878,6.83997 15.5,5.5C 13.3134,10.4159 10.4801,10.7492 7,6.5C 5.94227,2.71207 7.44227,0.712067 11.5,0.5C 12.8333,1.16667 14.1667,1.83333 15.5,2.5C 16.9185,1.99525 17.5852,0.995251 17.5,-0.5 Z M 19.5,1.5 C 22.3771,3.84555 22.0437,4.67888 18.5,4C 19.2524,3.32924 19.5858,2.4959 19.5,1.5 Z M 11.5,4.5 C 11.4891,7.00092 10.8224,7.16758 9.5,5C 10.0944,4.53566 10.7611,4.36899 11.5,4.5 Z"/></g>
<g><path style="opacity:0.553" fill="#ff0000" d="M 26.5,0.5 C 28.5273,0.337876 30.5273,0.504543 32.5,1C 34.5152,2.55528 34.8485,4.38861 33.5,6.5C 27.0709,9.67619 24.7375,7.67619 26.5,0.5 Z M 29.5,3.5 C 32.0009,3.51092 32.1676,4.17759 30,5.5C 29.5357,4.90558 29.369,4.23891 29.5,3.5 Z"/></g>
<g><path style="opacity:0.575" fill="#ff0000" d="M 32.5,41.5 C 24.5,41.5 16.5,41.5 8.5,41.5C 8.57918,40.0695 8.24585,38.7362 7.5,37.5C 4.81326,36.7396 2.14659,36.0729 -0.5,35.5C -0.5,30.8333 -0.5,26.1667 -0.5,21.5C 6.38549,22.4605 7.21883,20.4605 2,15.5C 1.27969,13.8876 1.44636,12.3876 2.5,11C 14.5,10.3333 26.5,10.3333 38.5,11C 39.5536,12.3876 39.7203,13.8876 39,15.5C 33.7812,20.4605 34.6145,22.4605 41.5,21.5C 41.6658,26.1785 41.4992,30.8452 41,35.5C 38.5272,36.1197 36.0272,36.7864 33.5,37.5C 32.7542,38.7362 32.4208,40.0695 32.5,41.5 Z M 7.5,17.5 C 16.1667,17.5 24.8333,17.5 33.5,17.5C 33.5,18.8333 33.5,20.1667 33.5,21.5C 24.8333,21.5 16.1667,21.5 7.5,21.5C 7.5,20.1667 7.5,18.8333 7.5,17.5 Z M 17.5,24.5 C 19.5,24.5 21.5,24.5 23.5,24.5C 23.719,25.675 23.3857,26.675 22.5,27.5C 21.1667,26.1667 19.8333,26.1667 18.5,27.5C 17.6143,26.675 17.281,25.675 17.5,24.5 Z M 5.5,26.5 C 8.57186,26.1826 11.5719,26.5159 14.5,27.5C 13.9598,28.7481 13.2931,29.9148 12.5,31C 10.1902,31.4966 7.85684,31.6633 5.5,31.5C 5.5,29.8333 5.5,28.1667 5.5,26.5 Z M 26.5,26.5 C 29.5,26.5 32.5,26.5 35.5,26.5C 35.5,28.1667 35.5,29.8333 35.5,31.5C 33.1432,31.6633 30.8098,31.4966 28.5,31C 27.4178,29.6703 26.7512,28.1703 26.5,26.5 Z M 19.5,29.5 C 20.4959,29.4142 21.3292,29.7476 22,30.5C 22.4777,35.8087 25.3111,37.8087 30.5,36.5C 30.5,37.5 30.5,38.5 30.5,39.5C 23.8333,39.5 17.1667,39.5 10.5,39.5C 10.5,38.5 10.5,37.5 10.5,36.5C 16.1101,37.559 19.1101,35.2257 19.5,29.5 Z"/></g>
<g><path style="opacity:0.799" fill="#ffffff" d="M 55.5,10.5 C 60.6278,10.1115 65.6278,10.6115 70.5,12C 75.8333,18 75.8333,24 70.5,30C 65.6278,31.3885 60.6278,31.8885 55.5,31.5C 55.5,24.5 55.5,17.5 55.5,10.5 Z M 60.5,13.5 C 66.3752,12.5415 69.3752,15.0415 69.5,21C 69.3752,26.9585 66.3752,29.4585 60.5,28.5C 60.5,23.5 60.5,18.5 60.5,13.5 Z"/></g>
<g><path style="opacity:0.789" fill="#ffffff" d="M 79.5,10.5 C 82.1873,10.3359 84.854,10.5026 87.5,11C 90.0793,12.7089 89.746,13.8756 86.5,14.5C 83.7733,12.6925 81.7733,13.1925 80.5,16C 83.2811,17.8282 86.1144,19.6615 89,21.5C 90.0977,30.3932 86.2644,33.5599 77.5,31C 74.9357,29.5187 74.9357,28.0187 77.5,26.5C 80.7727,29.3637 83.4393,29.0303 85.5,25.5C 83.0837,23.7328 80.4171,22.2328 77.5,21C 74.9361,16.8642 75.6028,13.3642 79.5,10.5 Z"/></g>
<g><path style="opacity:0.757" fill="#ffffff" d="M 91.5,10.5 C 95.6759,9.83068 97.0093,11.3307 95.5,15C 94.2068,15.49 92.8734,15.6567 91.5,15.5C 91.5,13.8333 91.5,12.1667 91.5,10.5 Z"/></g>
<g><path style="opacity:0.85" fill="#ffffff" d="M 91.5,16.5 C 92.8333,16.5 94.1667,16.5 95.5,16.5C 95.5,21.5 95.5,26.5 95.5,31.5C 94.1667,31.5 92.8333,31.5 91.5,31.5C 91.5,26.5 91.5,21.5 91.5,16.5 Z"/></g>
<g><path style="opacity:0.729" fill="#ffffff" d="M 98.5,16.5 C 102.601,16.6228 106.768,16.9561 111,17.5C 112.379,22.036 112.879,26.7027 112.5,31.5C 110.833,31.5 109.167,31.5 107.5,31.5C 107.5,27.5 107.5,23.5 107.5,19.5C 106.178,19.33 105.011,19.6634 104,20.5C 103.501,24.1516 103.335,27.8183 103.5,31.5C 101.833,31.5 100.167,31.5 98.5,31.5C 98.5,26.5 98.5,21.5 98.5,16.5 Z"/></g>
<g><path style="opacity:0.802" fill="#ffffff" d="M 117.5,16.5 C 124.424,14.9404 127.757,17.607 127.5,24.5C 124.428,24.1826 121.428,24.5159 118.5,25.5C 119.212,27.0459 120.378,28.0459 122,28.5C 123.766,27.7665 125.599,27.4332 127.5,27.5C 126.981,30.7749 124.981,32.1083 121.5,31.5C 116.789,31.2923 114.123,28.7923 113.5,24C 113.994,20.9919 115.327,18.4919 117.5,16.5 Z M 119.5,19.5 C 121.103,19.3118 122.437,19.8118 123.5,21C 121.833,21.6667 120.167,21.6667 118.5,21C 119.056,20.6174 119.389,20.1174 119.5,19.5 Z"/></g>
<g><path style="opacity:0.802" fill="#ffffff" d="M 129.5,16.5 C 132.262,17.3527 134.929,17.3527 137.5,16.5C 138.994,16.7092 140.161,17.3759 141,18.5C 144,15.8333 147,15.8333 150,18.5C 150.499,22.8206 150.666,27.1539 150.5,31.5C 149.167,31.5 147.833,31.5 146.5,31.5C 146.665,27.8183 146.499,24.1516 146,20.5C 145,19.1667 144,19.1667 143,20.5C 142.501,24.1516 142.335,27.8183 142.5,31.5C 141.167,31.5 139.833,31.5 138.5,31.5C 138.665,27.8183 138.499,24.1516 138,20.5C 137,19.1667 136,19.1667 135,20.5C 134.501,24.1516 134.335,27.8183 134.5,31.5C 132.833,31.5 131.167,31.5 129.5,31.5C 129.5,26.5 129.5,21.5 129.5,16.5 Z"/></g>
<g><path style="opacity:0.786" fill="#ffffff" d="M 155.5,16.5 C 158.448,16.2229 161.281,16.5562 164,17.5C 165.379,22.036 165.879,26.7027 165.5,31.5C 161.974,31.0607 158.307,30.894 154.5,31C 152.675,29.5341 152.175,27.7008 153,25.5C 155.573,23.6936 158.407,22.3603 161.5,21.5C 161.113,20.2801 160.28,19.6135 159,19.5C 157.234,20.2335 155.401,20.5668 153.5,20.5C 153.527,18.8007 154.194,17.4674 155.5,16.5 Z M 159.5,25.5 C 162.028,26.5179 161.861,27.5179 159,28.5C 158.5,28.1667 158,27.8333 157.5,27.5C 158.243,26.8182 158.909,26.1515 159.5,25.5 Z"/></g>
</svg>
